HIERARCHY
ROOT Hips
{
	OFFSET -14.64140 90.27770 -84.91600
	CHANNELS 6 Xposition Yposition Zposition Zrotation Xrotation Yrotation
	JOINT Spine
	{
		OFFSET 0.00000 13.20850 -1.60436
		CHANNELS 3 Zrotation Xrotation Yrotation
		JOINT Spine1
		{
			OFFSET 0.00000 8.61716 0.00000
			CHANNELS 3 Zrotation Xrotation Yrotation
			JOINT Spine2
			{
				OFFSET 0.00000 8.61717 0.00000
				CHANNELS 3 Zrotation Xrotation Yrotation
				JOINT Spine3
				{
					OFFSET 0.00000 8.61717 0.00000
					CHANNELS 3 Zrotation Xrotation Yrotation
					JOINT Neck
					{
						OFFSET 0.00000 11.07920 1.10792
						CHANNELS 3 Zrotation Xrotation Yrotation
						JOINT Neck1
						{
							OFFSET 0.00000 7.08032 0.00000
							CHANNELS 3 Zrotation Xrotation Yrotation
							JOINT Head
							{
								OFFSET 0.00000 7.08031 0.00000
								CHANNELS 3 Zrotation Xrotation Yrotation
								End site
								{
									OFFSET 0.00000 0.00000 0.00000
								}
							}
						}
					}
					JOINT RightShoulder
					{
						OFFSET -0.01000 7.91373 5.19711
						CHANNELS 3 Zrotation Xrotation Yrotation
						JOINT RightArm
						{
							OFFSET -18.41580 0.00000 0.00000
							CHANNELS 3 Zrotation Xrotation Yrotation
							JOINT RightForeArm
							{
								OFFSET -29.11090 0.00000 0.00000
								CHANNELS 3 Zrotation Xrotation Yrotation
								JOINT RightHand
								{
									OFFSET -24.65040 0.00000 0.00000
									CHANNELS 3 Zrotation Xrotation Yrotation
									JOINT RightHandThumb1
									{
										OFFSET -5.35114 -0.85590 3.97906
										CHANNELS 3 Zrotation Xrotation Yrotation
										JOINT RightHandThumb2
										{
											OFFSET -4.52789 0.00000 0.00000
											CHANNELS 3 Zrotation Xrotation Yrotation
											JOINT RightHandThumb3
											{
												OFFSET -2.46976 0.00000 0.00000
												CHANNELS 3 Zrotation Xrotation Yrotation
												End site
												{
													OFFSET 0.00000 0.00000 0.00000
												}
											}
										}
									}
									JOINT RightHandIndex1
									{
										OFFSET -14.26970 0.00000 2.88139
										CHANNELS 3 Zrotation Xrotation Yrotation
										JOINT RightHandIndex2
										{
											OFFSET -5.48836 0.00000 0.00000
											CHANNELS 3 Zrotation Xrotation Yrotation
											JOINT RightHandIndex3
											{
												OFFSET -3.01859 0.00000 0.00000
												CHANNELS 3 Zrotation Xrotation Yrotation
												End site
												{
													OFFSET 0.00000 0.00000 0.00000
												}
											}
										}
									}
									JOINT RightHandMiddle1
									{
										OFFSET -14.26970 0.00000 -0.09147
										CHANNELS 3 Zrotation Xrotation Yrotation
										JOINT RightHandMiddle2
										{
											OFFSET -6.17441 0.00000 0.00000
											CHANNELS 3 Zrotation Xrotation Yrotation
											JOINT RightHandMiddle3
											{
												OFFSET -3.56743 0.00000 0.00000
												CHANNELS 3 Zrotation Xrotation Yrotation
												End site
												{
													OFFSET 0.00000 0.00000 0.00000
												}
											}
										}
									}
									JOINT RightHandRing1
									{
										OFFSET -12.69180 0.00000 -3.06433
										CHANNELS 3 Zrotation Xrotation Yrotation
										JOINT RightHandRing2
										{
											OFFSET -5.62556 0.00000 0.00000
											CHANNELS 3 Zrotation Xrotation Yrotation
											JOINT RightHandRing3
											{
												OFFSET -3.56744 0.00000 0.00000
												CHANNELS 3 Zrotation Xrotation Yrotation
												End site
												{
													OFFSET 0.00000 0.00000 0.00000
												}
											}
										}
									}
									JOINT RightHandPinky1
									{
										OFFSET -11.11390 0.00000 -6.03719
										CHANNELS 3 Zrotation Xrotation Yrotation
										JOINT RightHandPinky2
										{
											OFFSET -4.52789 0.00000 0.00000
											CHANNELS 3 Zrotation Xrotation Yrotation
											JOINT RightHandPinky3
											{
												OFFSET -2.46976 0.00000 0.00000
												CHANNELS 3 Zrotation Xrotation Yrotation
												End site
												{
													OFFSET 0.00000 0.00000 0.00000
												}
											}
										}
									}
								}
							}
						}
					}
					JOINT LeftShoulder
					{
						OFFSET 0.01000 7.91373 5.19711
						CHANNELS 3 Zrotation Xrotation Yrotation
						JOINT LeftArm
						{
							OFFSET 18.41580 0.00000 0.00000
							CHANNELS 3 Zrotation Xrotation Yrotation
							JOINT LeftForeArm
							{
								OFFSET 29.11090 0.00000 0.00000
								CHANNELS 3 Zrotation Xrotation Yrotation
								JOINT LeftHand
								{
									OFFSET 24.65040 0.00000 0.00000
									CHANNELS 3 Zrotation Xrotation Yrotation
									JOINT LeftHandThumb1
									{
										OFFSET 5.35114 -0.85590 3.97906
										CHANNELS 3 Zrotation Xrotation Yrotation
										JOINT LeftHandThumb2
										{
											OFFSET 4.52789 0.00000 0.00000
											CHANNELS 3 Zrotation Xrotation Yrotation
											JOINT LeftHandThumb3
											{
												OFFSET 2.46977 0.00000 0.00000
												CHANNELS 3 Zrotation Xrotation Yrotation
												End site
												{
													OFFSET 0.00000 0.00000 0.00000
												}
											}
										}
									}
									JOINT LeftHandIndex1
									{
										OFFSET 14.26970 0.00000 2.88139
										CHANNELS 3 Zrotation Xrotation Yrotation
										JOINT LeftHandIndex2
										{
											OFFSET 5.48836 0.00000 0.00000
											CHANNELS 3 Zrotation Xrotation Yrotation
											JOINT LeftHandIndex3
											{
												OFFSET 3.01859 0.00000 0.00000
												CHANNELS 3 Zrotation Xrotation Yrotation
												End site
												{
													OFFSET 0.00000 0.00000 0.00000
												}
											}
										}
									}
									JOINT LeftHandMiddle1
									{
										OFFSET 14.26970 0.00000 -0.09147
										CHANNELS 3 Zrotation Xrotation Yrotation
										JOINT LeftHandMiddle2
										{
											OFFSET 6.17440 0.00000 0.00000
											CHANNELS 3 Zrotation Xrotation Yrotation
											JOINT LeftHandMiddle3
											{
												OFFSET 3.56744 0.00000 0.00000
												CHANNELS 3 Zrotation Xrotation Yrotation
												End site
												{
													OFFSET 0.00000 0.00000 0.00000
												}
											}
										}
									}
									JOINT LeftHandRing1
									{
										OFFSET 12.69180 0.00000 -3.06433
										CHANNELS 3 Zrotation Xrotation Yrotation
										JOINT LeftHandRing2
										{
											OFFSET 5.62556 0.00000 0.00000
											CHANNELS 3 Zrotation Xrotation Yrotation
											JOINT LeftHandRing3
											{
												OFFSET 3.56744 0.00000 0.00000
												CHANNELS 3 Zrotation Xrotation Yrotation
												End site
												{
													OFFSET 0.00000 0.00000 0.00000
												}
											}
										}
									}
									JOINT LeftHandPinky1
									{
										OFFSET 11.11390 0.00000 -6.03719
										CHANNELS 3 Zrotation Xrotation Yrotation
										JOINT LeftHandPinky2
										{
											OFFSET 4.52789 0.00000 0.00000
											CHANNELS 3 Zrotation Xrotation Yrotation
											JOINT LeftHandPinky3
											{
												OFFSET 2.46976 0.00000 0.00000
												CHANNELS 3 Zrotation Xrotation Yrotation
												End site
												{
													OFFSET 0.00000 0.00000 0.00000
												}
											}
										}
									}
								}
							}
						}
					}
					JOINT pCube4
					{
						OFFSET 0.00000 10.91090 1.10792
						CHANNELS 3 Zrotation Xrotation Yrotation
						End site
						{
							OFFSET 0.00000 0.00000 0.00000
						}
					}
				}
			}
		}
	}
	JOINT RightUpLeg
	{
		OFFSET -9.98441 0.00000 0.00000
		CHANNELS 3 Zrotation Xrotation Yrotation
		JOINT RightLeg
		{
			OFFSET 0.00000 -42.11790 0.00000
			CHANNELS 3 Zrotation Xrotation Yrotation
			JOINT RightFoot
			{
				OFFSET 0.00000 -45.00020 -0.00001
				CHANNELS 3 Zrotation Xrotation Yrotation
				JOINT RightForeFoot
				{
					OFFSET 0.00000 -3.74820 0.00000
					CHANNELS 3 Zrotation Xrotation Yrotation
					JOINT RightToeBase
					{
						OFFSET 0.00000 0.06325 14.43120
						CHANNELS 3 Zrotation Xrotation Yrotation
						End site
						{
							OFFSET 0.00000 0.00000 0.00000
						}
					}
				}
			}
		}
	}
	JOINT LeftUpLeg
	{
		OFFSET 9.98441 0.00000 0.00000
		CHANNELS 3 Zrotation Xrotation Yrotation
		JOINT LeftLeg
		{
			OFFSET 0.00000 -42.11800 0.00000
			CHANNELS 3 Zrotation Xrotation Yrotation
			JOINT LeftFoot
			{
				OFFSET 0.00000 -45.00070 0.00000
				CHANNELS 3 Zrotation Xrotation Yrotation
				JOINT LeftForeFoot
				{
					OFFSET 0.00000 -3.74824 0.00000
					CHANNELS 3 Zrotation Xrotation Yrotation
					JOINT LeftToeBase
					{
						OFFSET 0.00000 0.06325 14.43110
						CHANNELS 3 Zrotation Xrotation Yrotation
						End site
						{
							OFFSET 0.00000 0.00000 0.00000
						}
					}
				}
			}
		}
	}
}
MOTION
Frames: 4
Frame Time: 0.050000
-0.033744825970474776 0.03704283193881035 -0.04346398345604176 -0.032219005555703145 0.03970136586126859 -0.020244215199774578 2.602438545912353 3.6845892580322537 -1.7435100644105936 -0.8318499052487287 3.5984099735265334 0.39584143831548957 -0.8060047745133933 -1.0198630496261085 0.4344411275749177 -0.6140322789107729 -0.14126228047424472 -0.37586971713653927 -0.22648571844499474 10.560233665399064 -0.42284193345555565 0.35074816815395315 -2.097107045839964 -1.5817554129673426 0.7713682417677004 -19.449702177021024 -0.25477295336863665 -7.298158109716761 2.868980416381551 -15.967757252077059 82.90129809049225 20.5646108484827 2.289559338390318 -8.379490554875746 0.470689004571619 50.61121976217591 19.02750274518337 -0.25247323568704233 -3.154041934926749 4.522779149845807 -0.1683862726852488 -1.5760282017647511 0.03825957593624432 0.02214272885652556 -56.25680926498002 -0.006304820530647804 0.031234535261035024 -56.26668257950584 -38.75060426785606 -0.007146882539366127 0.047066649229780017 0.047664618456279055 0.017086071846567595 0.024496534027392824 -0.003375970207175729 -0.0016042265656927468 -0.046197396165513174 -36.6629456895595 -0.038421720951127156 0.0035575846412343962 0.03649852009837224 -0.0002194641458747201 0.0038846804021479497 -0.031184445335618368 -0.04685279383376491 -0.014533095679223397 -19.743946314349042 0.03786804200447182 -0.04239996433021225 -0.033152202581039535 0.02725482970366741 0.016603428055785265 0.023526207008965468 0.02818619657085551 0.03570934338206955 24.03416668238261 0.004545836044986505 -0.01729912826517734 28.837513063709125 0.036751921008388706 0.02345151513336113 28.903742385970766 0.03768806995406597 0.030131807982540025 7.711983856217176 1.990937908745493 13.526421016150758 -77.4048536582377 24.79191374853362 -8.506593800178244 -0.5083985115739275 -0.417541768465155 -41.63990331685004 -19.929398880565937 -5.288195357384678 6.1772906111296715 -0.4631110659084015 0.08614007801815735 -8.097498784477128 0.018059064399873013 0.01605423194506862 44.57832399966051 -0.023542928125153833 -0.0056727017552695574 44.5405665697047 12.457255081169262 0.02242803171328702 0.03129502679022975 0.035424029558734194 0.019324715400557947 0.0011330267388383716 -0.004466535009169399 -0.01025089661747982 0.035981829213594774 11.124954141792324 -0.014127816614053388 -0.02565231085241653 -0.04127291499990639 0.023126349959815853 0.014140859857024277 0.029540722780697932 -0.0016259774336186616 -0.049365635346890674 4.767218816422813 -0.03878972668951461 0.027137502306128946 0.047030847209673786 -0.03223502370259802 0.0002238372733909243 0.013271493380261233 -0.028408108830011297 0.044840652608129854 -5.623954574903172 -0.005683243097602713 -0.015298636830293188 -6.698250528733519 -0.03472316768236949 0.023524185147487595 -6.73161462389074 -0.03732305691300478 -0.01295840337169025 -0.0026360930429185185 -0.04266455560471342 -0.000649444221920117 8.052413265524498 3.4628846291805706 -19.258773953350005 0.03811699308900341 10.410324898988236 0.02398151025896461 -5.650374010096544 -15.646380237878288 3.2197283581730662 -0.013965449874690289 0.019034875562650027 -0.010614805923201225 -0.005370253621676285 4.652821344356684 0.029047102873830433 12.445899378919854 -8.203262023490792 6.848615631074282 0.026019781668314135 46.3892301347808 -0.004297443727749273 -4.369794177922881 -14.728390129695986 -3.82923822812495 0.038685997668562566 0.03625669531278056 -0.0018839336556459674 -0.0027581439651092536 -10.791575888216837 -0.005245559203451534 
0.04854317770207687 -0.011260596674919753 -0.03265193067682417 0.003106917427831153 0.03121620770030456 -0.005405385753137183 2.927530837439157 3.628206132522736 -1.8097029358977732 -0.8497967695315077 3.5746511418849516 0.4119188700983252 -0.7863065257335313 -0.9442770798555506 0.4941859271493128 -0.6260071730109804 -0.11527525532093297 -0.3319803430276705 -0.17890278007714575 10.666549028697094 -0.5941809341752331 0.3260446832200762 -2.0295211063361385 -1.7823974608545408 0.7721585569595204 -19.326572553144878 -0.2162940092465399 -7.417661860418046 2.87271601656419 -16.218462248298074 83.20480822236557 20.649779018178954 2.4604732893768673 -9.121236942164844 -0.05069862046020823 50.96773350052987 18.933577143011608 -0.320865719428711 -3.282528145785031 4.544737375999884 -0.11589423676224642 -1.624529618188805 0.042214931713847624 0.03380053203933436 -56.18558084765756 -0.021363205428527512 -0.023704452526155606 -56.27980437840196 -38.81469198493522 0.024909960050836663 -0.0027889001913842686 0.035178587250440936 -0.012542414125262288 0.017885419148227093 0.030291073339935047 0.044279167888049725 0.01779919902779464 -36.71555087936785 0.014833074245963694 -0.021224438628198207 -0.041734094656112074 -0.027656178580010907 -0.007723471421488378 0.024801559589604352 -0.006649954501504091 -0.0012893587471139484 -19.787994299111727 -0.006962699646342066 0.024657635156683875 0.003338945722163927 -0.0010356280579547792 0.02267652016909338 -0.0241100178519012 -0.02224330085899504 -0.013645126057066505 24.037070002239332 0.0054145803121512905 0.015684748336586462 28.828180981647183 0.024256069385836215 -0.030962941463625288 28.884721433820232 -0.04910108939440575 -0.02686898244807681 7.764315155397489 1.9606136819433944 13.692014984476806 -77.50485234423672 25.1549912272273 -8.51721855391702 -0.8142752789912917 -0.006760421906309001 -42.16815380491394 -20.442099301141837 -5.918770751811278 6.665090802114082 -0.4270338909629505 0.06289847514462335 -8.111751611941385 -0.009625980052549006 -0.007245618681812482 44.611306184129376 -0.04203453235015073 -0.007396104076960105 44.5689952259241 12.439486717647453 -0.029800639612833496 0.049547457302769 0.02665707687415505 -0.044407520866411 -0.020922767590458854 -0.011629333916253867 -0.009311943591050089 0.04264091671970334 11.14919848532629 -0.036633223042787516 0.017448755646326468 0.023040157580560054 0.048552743104447495 0.004692096011709369 -0.04976924342431085 0.013208523265041803 0.005453606198489751 4.797463477680082 0.021401165122097554 0.02383402163408256 0.040282462451175526 -0.008932697101600528 -0.01647077699609283 0.017508692363566142 0.03616759840263511 -0.01074323353664894 -5.6328879985457645 0.03876941514231769 -0.016452927736747065 -6.740846259536301 0.026461362211091525 -0.04263493537024196 -6.749222979313532 0.04781741539133147 0.005239383986251141 -0.00707856200058899 0.04562562522296642 -0.025660957505466254 8.025199207636934 3.4443542091634054 -19.26614156410898 -0.04119848070831579 10.429092329462737 -0.002712810412803933 -5.575711215811378 -15.637816622111437 3.2370936502012486 -0.0211827753101644 0.0355861603450898 0.029735170453919525 0.013954941386657854 4.7059442509013865 0.04002168652669137 12.456436555632953 -8.210463703489392 6.895886174855072 -0.000524954357348471 46.394267382467 0.005481333185163579 -4.275541927922736 -14.756894139064556 -3.879035986701375 -0.04469721615336983 -0.03508561821660273 -0.033122505780286554 -0.021237749092451325 -10.707302996185488 0.003968264061811497 
-0.008609712984165558 -0.034369475170815816 0.004970959254418173 0.01309430635575954 0.022812793676602376 -0.04618875074167721 3.057871921180974 3.639546411734499 -1.8377255446351386 -0.8210206328223641 3.580477822936718 0.3985352854493488 -0.7027039152947451 -0.9333104030881189 0.46335446293559973 -0.5484657618256882 -0.09406031610409891 -0.37151874913732225 -0.1914960242385285 10.697041569245483 -0.5758535910823568 0.31184444673727113 -1.8951542303581053 -1.7654772134891312 0.8488150031240522 -19.175790700789385 -0.22411107246672085 -7.6585843081575655 2.966980909099482 -16.364630244043006 83.45133633450872 20.979772576881846 2.4519650383524936 -9.457869245231043 -0.9563281409188268 50.33707864306237 18.66637896269969 -0.2973037814853343 -3.3120839263315585 4.500406744493622 -0.13761171872926212 -1.614020558839962 -0.03751725442408253 -0.03469081506770937 -56.25209577224484 -0.02254217098907636 0.0019442057817223891 -56.266420493731815 -38.80156552410545 -0.00715559815819059 -0.007055719017814844 0.004164750316572832 0.045628262740532353 -0.002646803373944653 -0.04128037185977 -0.0019807530808574002 -0.03576724004402337 -36.707214173658556 0.009930663640443902 -0.03779057593905181 -0.0009440171084425887 0.028232809465767814 0.029031342378899216 -0.009092921650126005 -0.027788965183661314 -0.0004256333863646039 -19.7228057072054 -0.018531274220474504 -0.030257472696620706 0.033956810133187534 0.014055920453786522 0.031418130970652575 -0.03801144003226891 -0.013846355006756439 0.003529178289550878 24.044895321371996 -0.01747597383458053 0.02545668094696244 28.884741027473986 0.004591309410950978 -0.03381574729105933 28.865013705357065 0.047363252546322857 -0.04392494127026035 7.813910273870527 1.9922287868223767 13.797207708364628 -77.52689449844692 25.43778767827983 -8.524748061321777 -0.8176309338760781 -0.2594869400737839 -42.105533424092904 -20.43119451082978 -6.056526786931948 6.797531279203257 -0.49155972072981846 0.11435843557260773 -8.119234976747938 0.03363102796994503 -0.02765665729147631 44.54675355396375 0.02585909580320631 -0.02882050953891333 44.54782672706473 12.423854299906347 -0.017615302493512352 0.02733893154275081 -0.03783658980885563 -0.016430588862740406 0.001785015447176071 0.012364271730610827 0.04261516201910387 0.015886608139398104 11.084848118159503 0.0013053549148283757 -0.04574683021384542 0.00465705911096883 0.019314599567410468 -0.032570109627755445 -0.0006265825084988516 0.01385855246404233 -0.006878153755168332 4.728492583357032 0.035091960544631776 -0.02115571680671158 0.017626290210778387 0.033879649393988236 -0.00932627847878043 -0.00505453434013879 -0.018792596308633173 -0.020121220919859073 -5.6304493138938385 -0.017979382649302492 -0.008352788084755022 -6.6992569322502025 -0.0038660266942197076 -0.023636740704014954 -6.686348950496083 0.025441672441570147 -0.009780855699243932 -0.0009073498167041083 0.009057169046090677 0.025381742556399755 8.03830288789917 3.5339831350737803 -19.24838109349581 -0.023601676541790576 10.415820552475514 0.013980355037450641 -5.6270298196060695 -15.681746454822045 3.2042863278268765 -0.04195746756879012 0.034405810514071 0.034552279860233896 -0.025240090889200532 4.671581814965923 -0.012210136094182124 12.458458800817235 -8.215074978406793 6.851158913473894 -0.048273992839415227 46.38246006023363 -0.009074833432856809 -4.311895558677711 -14.769590362408403 -3.847300800628577 -0.004465944634683557 0.02618756377051895 0.04820562476693355 -0.03409416518535279 -10.762447771838398 0.03199699316175719 
-0.030314865521593723 -0.03271351173022204 -0.007997803645206572 0.04617076453777508 -0.03582784286206103 -0.0042220445271984675 3.187376896108917 3.5111379657703172 -1.8634584840373356 -0.8410110053143928 3.584602630955959 0.36114238725193326 -0.7993818243941987 -0.9917781886866943 0.4382085070720886 -0.5463588021902088 -0.022035909719811744 -0.4190223088570724 -0.1944039591485483 10.695000193955435 -0.5585800919179956 0.2642854188992574 -1.8661770604984342 -1.609818618004578 0.8047130395241756 -19.02709595153235 -0.1827492985195166 -7.733889057291598 2.9482037683635607 -16.517113609231327 83.61702637804743 20.89820148666267 2.0917945537928393 -8.963081179423119 -1.6006387415476675 48.74408703803808 18.534157525495136 -0.2365602874470399 -3.370047109714845 4.545398720755815 -0.09504730431269887 -1.5548557516652655 -0.03979075244529993 -0.009935814081554724 -56.241746952554124 0.025726005875405675 0.003431068802458666 -56.196572647186294 -38.74457589423101 -0.024063318232301914 -0.04497754706270252 -0.0036161365703196707 -0.008066162235267845 -0.0004012675813308486 -0.02027804311371878 -0.03488935328755681 0.006798859305695314 -36.67200168231698 0.018704545637967 0.020353775970252532 0.006776914762944458 0.042137757637010304 -0.024056705746705872 0.034849125607258113 0.017895479806447963 -0.04410492533559952 -19.798434877735613 -0.009814051615326828 0.003867860530343711 0.016797091924367746 -0.015283018234796074 -0.04982182676878964 -0.03843277472543723 0.00156111922851741 -0.0061679123961619255 24.060288996244555 0.04628759305374841 -0.020698531731708044 28.830044538848806 0.011728696268584476 0.021933779357712863 28.901129015250138 -0.04540957841926662 -0.010353794261728675 7.85054311910699 1.9598971306834612 13.892582122763004 -77.44596694489178 25.62070069893897 -8.143231145924695 0.0705003484260811 -1.0164970387941858 -41.2211515791656 -20.05842714800826 -5.747326685539102 6.517911226468134 -0.4941736551415779 0.0943476372178775 -8.143717860064317 0.015556841216891824 0.034163699943910435 44.609707427262386 -0.00816495592541607 -0.02269686591273038 44.60245150093805 12.451168787434264 -0.030091064513031538 0.0107207924850472 -0.0015086288581348493 0.03872246145075491 0.03057706442054761 0.0492776408266693 0.02522134272878771 -0.03730718113471554 11.095205431020956 0.0009937963455164316 0.009412019060173462 -0.0176855081099169 0.01751200281105017 -0.004194086815419036 0.01069963245355006 -0.00803947686366161 0.017231856841958517 4.784054743761491 -0.045539508248857045 0.021091087655922165 -0.010273712140543961 0.011022066426232215 -0.011128704266155745 0.027763079551064718 -0.048674537486849245 -0.021952047371786687 -5.610692244190931 0.032542646312258734 -0.04900020067967204 -6.708728423520546 -0.04598246071869337 0.03584321266053944 -6.755655521760065 -0.04548446454147591 0.00758467163529283 -0.03549450584218737 0.0013417236372765577 -0.021771377614565025 8.035790084417618 3.487500982616375 -19.186085964736744 -0.028087562944448807 10.402237275965552 0.04136230483068146 -5.612452780863179 -15.615681047558523 3.172625591349078 0.015809247479108758 -0.04276705912059673 -0.04175703096279918 0.0057701056295438365 4.709658753322018 0.0195267037704942 12.442526621863419 -8.276157067757728 6.848679588262527 -0.01788970641317224 46.402255166129244 -0.0015396989092873144 -4.32326134277831 -14.786770024066694 -3.8608412254739726 -0.0048580641110044205 0.04574191498611097 -0.01092265286345007 -0.03697321850119787 -10.770286568442259 -0.03815760248143099 
